<svg width="237" height="180" viewBox="0 0 237 180" fill="none" xmlns="http://www.w3.org/2000/svg">
<g clip-path="url(#clip0)">
<path d="M114.923 177.689L4.60522 112.513C1.09322 110.539 -1.91778 107.304 1.50522 105.182L112.215 41.393C113.875 40.363 116.396 39.688 118.088 40.673L233.874 107.863C237.386 109.901 238.016 115.58 234.517 117.637L129.461 177.587C127.256 178.866 124.755 179.548 122.206 179.565C119.656 179.583 117.146 178.937 114.923 177.689Z" fill="#5B36A0"/>
<path d="M114.923 174.681L4.60522 109.503C1.09322 107.528 -1.91778 104.293 1.50522 102.171L112.215 38.3829C113.875 37.3539 116.396 36.6789 118.088 37.6629L233.874 104.853C237.386 106.892 238.016 112.57 234.517 114.628L129.461 174.577C127.256 175.856 124.755 176.538 122.206 176.556C119.657 176.574 117.147 175.927 114.923 174.68V174.681Z" fill="#6862E6"/>
<path style="mix-blend-mode:multiply" opacity="0.25" d="M124.019 88.6869L102.251 101.105C102.251 101.105 135.784 121.562 142.641 124.443L155.178 106.436" fill="url(#paint0_linear)"/>
<path style="mix-blend-mode:multiply" opacity="0.25" d="M116.499 148.263L94.7251 135.87L72.951 148.288C72.951 148.288 84.291 155.208 95.1311 161.562C102.013 156.694 108.902 151.774 116.499 148.262V148.263Z" fill="url(#paint1_linear)"/>
<path style="mix-blend-mode:multiply" opacity="0.46" d="M69.5872 71.7349L55.7762 79.6129C55.7762 79.6129 56.9462 86.8349 63.8042 89.7159L81.886 78.1399" fill="url(#paint2_linear)"/>
<path d="M76.347 79.6129C80.948 79.6129 84.677 76.987 84.677 73.7479C84.677 70.5087 80.948 67.8829 76.347 67.8829C71.747 67.8829 68.0172 70.5087 68.0172 73.7479C68.0172 76.987 71.747 79.6129 76.347 79.6129Z" fill="#68E1FD"/>
<path d="M76.3411 72.8409C79.7871 72.8409 82.5811 71.6978 82.5811 70.2879C82.5811 68.8779 79.7871 67.7349 76.3411 67.7349C72.8951 67.7349 70.1011 68.8779 70.1011 70.2879C70.1011 71.6978 72.8951 72.8409 76.3411 72.8409Z" fill="#974C26"/>
<path d="M76.116 66.0309C76.116 64.8799 76.077 63.7279 75.987 62.5769C75.961 62.2769 75.933 61.9789 75.903 61.6829L75.839 61.0979C75.839 60.9249 75.749 60.4549 75.749 60.4999C75.71 60.2639 75.669 60.0299 75.627 59.7999C74.947 55.8918 73.428 52.1774 71.176 48.9119C70.329 50.9283 69.9058 53.0978 69.9342 55.2849C69.9342 55.9279 69.9852 56.5709 70.037 57.1749V57.5549C70.291 59.0467 70.678 60.5127 71.195 61.9349C71.564 62.9715 72.013 63.9776 72.539 64.9439C73.107 66.0318 73.723 67.0938 74.385 68.1269C74.9 68.9369 75.389 69.6569 75.885 70.3459C76.039 68.9119 76.109 67.4709 76.115 66.0309H76.116ZM72.842 53.0849C72.875 52.9367 72.875 52.7831 72.842 52.6349C73 52.7979 73.157 52.9649 73.312 53.1369C73.157 53.0928 72.996 53.0752 72.835 53.0849H72.842Z" fill="#999A1C"/>
<path d="M78.258 66.9179C78.901 65.9479 79.468 64.9879 80.014 63.9409C80.155 63.6749 80.293 63.4089 80.426 63.1429L80.689 62.6089L80.94 62.0559L81.217 61.4129C82.759 57.7546 83.49 53.8056 83.359 49.8379C81.551 51.0759 80.018 52.6739 78.856 54.5319C78.523 55.0679 78.211 55.6173 77.923 56.1789L77.795 56.4159L77.762 56.5189C77.64 56.8089 77.518 57.0989 77.402 57.3939C76.976 58.5144 76.63 59.664 76.367 60.8339C76.117 61.9062 75.951 62.9966 75.871 64.0949C75.758 65.3156 75.702 66.5409 75.704 67.7669C75.704 68.7249 75.704 69.5999 75.762 70.4419C76.617 69.3039 77.479 68.1339 78.258 66.9179ZM82.503 54.2559C82.604 54.1429 82.679 54.0089 82.722 53.8629C82.769 54.0859 82.81 54.3009 82.844 54.5069C82.744 54.4069 82.629 54.3219 82.504 54.2559H82.503Z" fill="#999A1C"/>
<path d="M78.213 69.7859C78.86 69.4649 79.503 69.1179 80.143 68.7449L80.625 68.4489L80.94 68.2489L81.249 68.0309L81.609 67.7669C83.62 66.2912 85.288 64.3979 86.498 62.2169C85.125 62.305 83.785 62.675 82.561 63.3039C82.207 63.4839 81.866 63.6839 81.525 63.8889L81.378 63.9789L81.326 64.0239L80.85 64.3779C80.257 64.8449 79.698 65.3549 79.178 65.9019C78.697 66.3999 78.256 66.9359 77.858 67.5029C77.412 68.1342 76.983 68.7778 76.572 69.4329C76.264 69.9469 75.987 70.4289 75.742 70.8989C76.572 70.5519 77.402 70.1909 78.212 69.7859H78.213ZM84.593 64.3199C84.684 64.2916 84.768 64.2435 84.838 64.1789C84.791 64.3155 84.74 64.4506 84.684 64.5839C84.667 64.4941 84.637 64.4075 84.594 64.3269V64.3199H84.593ZM76.116 66.0309C76.116 64.8799 76.077 63.7279 75.987 62.5769C75.961 62.2769 75.933 61.9789 75.903 61.6829L75.839 61.0979C75.839 60.9249 75.749 60.4549 75.749 60.4999C75.71 60.2639 75.669 60.0299 75.627 59.7999C74.947 55.8918 73.428 52.1774 71.176 48.9119C70.329 50.9283 69.9058 53.0978 69.9342 55.2849C69.9342 55.9279 69.9852 56.5709 70.037 57.1749V57.5549C70.291 59.0467 70.678 60.5127 71.195 61.9349C71.564 62.9715 72.013 63.9776 72.539 64.9439C73.107 66.0318 73.723 67.0938 74.385 68.1269C74.9 68.9369 75.389 69.6569 75.885 70.3459C76.039 68.9119 76.109 67.4709 76.115 66.0309H76.116ZM72.842 53.0849C72.875 52.9367 72.875 52.7831 72.842 52.6349C73 52.7979 73.157 52.9649 73.312 53.1369C73.157 53.0928 72.996 53.0752 72.835 53.0849H72.842Z" fill="#999A1C"/>
<path d="M78.258 66.9179C78.901 65.9479 79.468 64.9879 80.014 63.9409C80.155 63.6749 80.293 63.4089 80.426 63.1429L80.689 62.6089L80.94 62.0559L81.217 61.4129C82.759 57.7546 83.49 53.8056 83.359 49.8379C81.551 51.0759 80.018 52.6739 78.856 54.5319C78.523 55.0679 78.211 55.6173 77.923 56.1789L77.795 56.4159L77.762 56.5189C77.64 56.8089 77.518 57.0989 77.402 57.3939C76.976 58.5144 76.63 59.664 76.367 60.8339C76.117 61.9062 75.951 62.9966 75.871 64.0949C75.758 65.3156 75.702 66.5409 75.704 67.7669C75.704 68.7249 75.704 69.5999 75.762 70.4419C76.617 69.3039 77.479 68.1339 78.258 66.9179ZM82.503 54.2559C82.604 54.1429 82.679 54.0089 82.722 53.8629C82.769 54.0859 82.81 54.3009 82.844 54.5069C82.744 54.4069 82.629 54.3219 82.504 54.2559H82.503Z" fill="#999A1C"/>
<path d="M78.2131 69.7859C78.8601 69.4649 79.5031 69.1179 80.1431 68.7449L80.6251 68.4489L80.9401 68.2489L81.2491 68.0309L81.6091 67.7669C83.6201 66.2912 85.2881 64.3979 86.4981 62.2169C85.1251 62.305 83.7851 62.675 82.5611 63.3039C82.2071 63.4839 81.8661 63.6839 81.5251 63.8889L81.3781 63.9789L81.3261 64.0239L80.8501 64.3779C80.2571 64.8449 79.6981 65.3549 79.1781 65.9019C78.6971 66.3999 78.2561 66.9359 77.8581 67.5029C77.4121 68.1342 76.9831 68.7778 76.5721 69.4329C76.2641 69.9469 75.9871 70.4289 75.7421 70.8989C76.5721 70.5519 77.4021 70.1909 78.2121 69.7859H78.2131ZM84.5931 64.3199C84.6841 64.2916 84.7681 64.2435 84.8381 64.1789C84.7911 64.3155 84.7401 64.4506 84.6841 64.5839C84.6671 64.4941 84.6371 64.4075 84.5941 64.3269V64.3199H84.5931Z" fill="#999A1C"/>
<path d="M132.664 83.8379L120.616 89.6259C120.162 89.8441 119.777 90.1818 119.5 90.6026C119.224 91.0235 119.068 91.5117 119.048 92.0148C119.028 92.5179 119.145 93.017 119.388 93.4583C119.63 93.8996 119.988 94.2666 120.423 94.5199L148.977 111.176C149.594 111.537 150.327 111.645 151.022 111.478C151.717 111.312 152.321 110.883 152.708 110.282L159.648 99.4909" fill="#A1482D"/>
<path d="M198.193 55.9209L102.123 0.576882C101.464 0.19802 100.717 -0.000922181 99.957 3.21371e-06C99.197 0.000928608 98.45 0.201689 97.792 0.582154C97.134 0.96262 96.587 1.50942 96.207 2.16772C95.827 2.82603 95.627 3.5727 95.626 4.33288V61.9079C95.626 63.1949 96.312 64.3839 97.426 65.0279L199.846 124.134C200.199 124.338 200.6 124.446 201.008 124.446C201.417 124.446 201.817 124.339 202.171 124.135C202.524 123.931 202.818 123.637 203.022 123.283C203.225 122.93 203.333 122.529 203.332 122.121V64.7829C203.331 62.9842 202.855 61.2177 201.952 59.6617C201.05 58.1058 199.753 56.8154 198.192 55.9209H198.193Z" fill="#F47B56"/>
<path d="M102.129 4.93085L195.298 58.5189C196.293 59.0915 197.12 59.9162 197.694 60.9098C198.269 61.9034 198.572 63.031 198.572 64.1789V107.336C198.572 107.749 198.462 108.155 198.256 108.512C198.049 108.87 197.752 109.167 197.395 109.374C197.038 109.581 196.632 109.691 196.219 109.692C195.806 109.693 195.4 109.586 195.041 109.381L100.025 54.8989C99.67 54.695 99.374 54.4008 99.169 54.0461C98.963 53.6914 98.855 53.2888 98.855 52.8789V6.82786C98.855 6.44454 98.956 6.06791 99.147 5.73576C99.338 5.4036 99.614 5.1276 99.945 4.93542C100.277 4.74325 100.653 4.64167 101.037 4.64087C101.42 4.64007 101.797 4.74007 102.129 4.93085Z" fill="white"/>
<path d="M141.331 86.3331C142.43 86.1215 143.124 84.9322 142.883 83.6768C142.641 82.4213 141.554 81.575 140.456 81.7866C139.357 81.9982 138.662 83.1875 138.904 84.443C139.146 85.6984 140.232 86.5447 141.331 86.3331Z" fill="#AB643C"/>
<path opacity="0.32" d="M127.171 63.4839L170.468 89.4909L191.857 77.0599L153.641 54.8219" fill="url(#paint3_linear)"/>
<path d="M180.677 58.3069L133.867 29.7729C133.617 29.6281 133.332 29.553 133.043 29.5555C132.753 29.5579 132.47 29.6378 132.222 29.7868C131.974 29.9358 131.77 30.1485 131.632 30.4028C131.494 30.6571 131.426 30.9437 131.436 31.2329V47.4899C131.434 47.7841 131.508 48.0739 131.652 48.331C131.795 48.5881 132.002 48.8037 132.253 48.9569L179.056 76.8869C179.302 77.0265 179.581 77.099 179.864 77.0972C180.147 77.0954 180.424 77.0193 180.668 76.8765C180.913 76.7337 181.115 76.5293 181.255 76.2836C181.396 76.038 181.469 75.7598 181.468 75.4769L181.712 60.3199C181.73 59.9232 181.644 59.5287 181.463 59.1756C181.281 58.8225 181.01 58.523 180.677 58.3069Z" fill="#E2AC00"/>
<path d="M169.478 66.6729C171.157 69.0209 174.109 69.6769 176.065 68.1459C178.02 66.6159 178.245 63.471 176.566 61.13C174.887 58.79 171.935 58.127 169.979 59.658C168.024 61.188 167.799 64.3269 169.478 66.6739V66.6729Z" fill="white"/>
<path d="M164.885 55.407L145.793 43.915C145.63 43.84 145.444 43.8284 145.272 43.8824C145.1 43.9365 144.955 44.0523 144.864 44.2075C144.772 44.3627 144.742 44.5462 144.778 44.7225C144.815 44.8989 144.915 45.0555 145.06 45.162L164.152 56.654C164.316 56.729 164.502 56.7406 164.673 56.6865C164.845 56.6325 164.991 56.5167 165.082 56.3615C165.173 56.2063 165.203 56.0227 165.167 55.8464C165.131 55.6701 165.03 55.5135 164.885 55.407ZM164.1 60.076L137.785 44.236C137.624 44.1793 137.448 44.1813 137.288 44.2416C137.128 44.3018 136.994 44.4165 136.911 44.5655C136.827 44.7144 136.798 44.8882 136.83 45.0561C136.861 45.2241 136.951 45.3756 137.083 45.484L163.367 61.33C163.531 61.4062 163.718 61.4186 163.89 61.3648C164.063 61.311 164.209 61.1948 164.301 61.039C164.392 60.8831 164.422 60.6987 164.385 60.5217C164.348 60.3448 164.247 60.188 164.1 60.082V60.076Z" fill="#F2F2F2"/>
<path d="M171.337 61.4579L124.553 32.9309C124.303 32.7858 124.018 32.7106 123.728 32.7129C123.439 32.7152 123.155 32.795 122.907 32.944C122.659 33.0931 122.455 33.3058 122.317 33.5603C122.179 33.8147 122.111 34.1015 122.121 34.3909V50.6409C122.114 51.2409 122.421 51.7999 122.931 52.1139L169.735 80.0439C169.984 80.1866 170.266 80.2607 170.552 80.2585C170.839 80.2562 171.12 80.1778 171.366 80.0312C171.612 79.8847 171.815 79.6752 171.953 79.4244C172.092 79.1735 172.161 78.8903 172.154 78.6039L172.398 63.4449C172.409 63.0501 172.317 62.6593 172.131 62.3109C171.945 61.9625 171.671 61.6686 171.337 61.4579Z" fill="#F47B56"/>
<path d="M160.138 69.8248C161.817 72.1718 164.769 72.8278 166.725 71.2978C168.68 69.7678 168.905 66.6218 167.226 64.2808C165.547 61.9408 162.595 61.2778 160.639 62.8088C158.684 64.3388 158.459 67.4778 160.138 69.8248Z" fill="white"/>
<path d="M155.545 58.5579L136.439 47.0659C136.275 46.9896 136.089 46.9772 135.916 47.031C135.744 47.0848 135.597 47.201 135.506 47.3569C135.414 47.5128 135.384 47.6972 135.421 47.8741C135.458 48.0511 135.56 48.2078 135.706 48.3139L154.798 59.8059C154.962 59.8821 155.149 59.8945 155.321 59.8407C155.494 59.7869 155.64 59.6707 155.732 59.5149C155.823 59.359 155.853 59.1746 155.816 58.9976C155.779 58.8207 155.678 58.6639 155.531 58.5579H155.544H155.545ZM154.754 63.2589L128.444 47.3939C128.28 47.3176 128.094 47.3052 127.921 47.359C127.749 47.4128 127.602 47.529 127.511 47.6849C127.419 47.8408 127.389 48.0252 127.426 48.2021C127.463 48.3791 127.565 48.5358 127.711 48.6419L154.027 64.4809C154.191 64.5571 154.378 64.5695 154.55 64.5157C154.723 64.4619 154.869 64.3457 154.961 64.1899C155.052 64.034 155.082 63.8496 155.045 63.6726C155.008 63.4957 154.907 63.3389 154.76 63.2329L154.754 63.2589Z" fill="#F2F2F2"/>
<path d="M159.597 63.375L112.801 34.847C112.551 34.702 112.266 34.6267 111.976 34.629C111.687 34.6313 111.403 34.7111 111.155 34.8601C110.907 35.0092 110.703 35.222 110.565 35.4764C110.426 35.7308 110.359 36.0176 110.369 36.307V52.558C110.367 52.8521 110.442 53.1416 110.585 53.3985C110.728 53.6554 110.935 53.8709 111.186 54.024L157.989 81.954C158.238 82.0967 158.52 82.1708 158.806 82.1686C159.093 82.1664 159.374 82.0879 159.62 81.9413C159.866 81.7948 160.069 81.5853 160.207 81.3345C160.346 81.0836 160.415 80.8005 160.408 80.514L160.652 65.355C160.673 64.555 160.272 63.804 159.597 63.375Z" fill="#68E1FD"/>
<path d="M159.597 63.375L112.801 34.847C112.551 34.702 112.266 34.6267 111.976 34.629C111.687 34.6313 111.403 34.7111 111.155 34.8601C110.907 35.0092 110.703 35.222 110.565 35.4764C110.426 35.7308 110.359 36.0176 110.369 36.307V52.558C110.367 52.8521 110.442 53.1416 110.585 53.3985C110.728 53.6554 110.935 53.8709 111.186 54.024L157.989 81.954C158.238 82.0967 158.52 82.1708 158.806 82.1686C159.093 82.1664 159.374 82.0879 159.62 81.9413C159.866 81.7948 160.069 81.5853 160.207 81.3345C160.346 81.0836 160.415 80.8005 160.408 80.514L160.652 65.355C160.673 64.555 160.272 63.804 159.597 63.375Z" fill="#68E1FD"/>
<path d="M148.392 71.7408C150.071 74.0888 153.023 74.7448 154.979 73.2138C156.934 71.6838 157.159 68.5388 155.48 66.1978C153.802 63.8578 150.849 63.1948 148.894 64.7248C146.938 66.2548 146.732 69.3948 148.392 71.7408Z" fill="white"/>
<path d="M143.799 60.474L124.701 48.9829C124.537 48.9057 124.35 48.8928 124.177 48.9463C124.004 48.9998 123.857 49.1161 123.765 49.2723C123.673 49.4285 123.643 49.6133 123.68 49.7907C123.718 49.968 123.82 50.1251 123.967 50.231L143.059 61.723C143.223 61.8001 143.41 61.8132 143.583 61.7597C143.757 61.7062 143.903 61.5899 143.995 61.4337C144.087 61.2774 144.117 61.0925 144.08 60.9152C144.043 60.7378 143.94 60.5807 143.793 60.4749H143.799V60.474ZM143.008 65.15L116.692 49.3099C116.528 49.2337 116.342 49.2213 116.169 49.2751C115.997 49.3289 115.85 49.445 115.759 49.6009C115.667 49.7568 115.637 49.9412 115.674 50.1181C115.711 50.2951 115.813 50.4518 115.959 50.5579L142.274 66.398C142.438 66.4751 142.625 66.4882 142.798 66.4347C142.972 66.3812 143.118 66.2648 143.21 66.1086C143.302 65.9523 143.332 65.7675 143.295 65.5902C143.258 65.4128 143.155 65.2558 143.008 65.15Z" fill="#F2F2F2"/>
<path d="M98.179 61.7799C95.155 64.3818 92.868 67.7327 91.547 71.4969C89.219 77.9269 95.04 88.4359 95.04 88.4359L104.097 81.2659" fill="#FF8F6F"/>
<path d="M97.202 146.803L94.744 145.446L95.388 141.935C95.388 141.935 99.048 142.282 99.369 143.581" fill="#003B94"/>
<path d="M98.102 146.751C98.655 146.411 99.234 146.108 99.807 145.806C101.228 145.028 103.28 144.224 104.155 142.764C104.334 142.469 104.419 142.126 104.399 141.781C104.378 141.437 104.253 141.106 104.039 140.835C102.753 139.279 99.935 141.838 98.495 140.115C98.212 139.774 98.076 134.365 98.076 134.365L92.596 135.845C92.596 135.845 91.67 146.713 91.773 147.382C91.875 148.05 93.76 148.668 93.76 148.668C94.322 148.549 94.858 148.331 95.343 148.025C95.915 147.607 95.394 142.507 96.127 143.221C96.861 143.935 97.182 146.726 97.182 146.726C97.487 146.772 97.796 146.78 98.102 146.751Z" fill="#F47B56"/>
<path d="M107.667 152.057L105.21 150.719L105.853 147.208C105.853 147.208 109.513 147.555 109.835 148.854" fill="#003B94"/>
<path d="M108.594 152.005C109.147 151.665 109.726 151.362 110.298 151.06C111.72 150.282 113.772 149.478 114.647 148.018C114.826 147.723 114.911 147.38 114.891 147.035C114.87 146.691 114.744 146.36 114.531 146.089C113.244 144.533 110.427 147.092 108.986 145.369C108.703 145.028 108.568 139.619 108.568 139.619L103.088 141.099C103.088 141.099 102.155 152.005 102.258 152.649C102.36 153.292 104.245 153.935 104.245 153.935C104.807 153.816 105.343 153.598 105.828 153.292C106.4 152.874 105.879 147.774 106.612 148.488C107.346 149.202 107.667 151.993 107.667 151.993C107.974 152.035 108.286 152.039 108.594 152.005Z" fill="#F47B56"/>
<path d="M89.811 116.726L88.196 138.314C88.196 138.314 90.769 141.864 99.396 139.89L99.479 125.337L89.811 116.726ZM99.775 121.003C99.588 122.861 99.775 143.363 99.775 143.363C99.775 143.363 102.161 147.825 112.55 143.363L112.402 125.941" fill="#3E2928"/>
<path d="M89.0071 123.857C89.7141 124.347 89.9591 121.832 90.6981 122.263C93.3901 123.826 96.2461 125.085 99.2151 126.018H99.2791C99.3501 125.983 99.4271 125.964 99.5061 125.96C99.5841 125.956 99.6631 125.968 99.7371 125.995C99.8111 126.022 99.8781 126.063 99.9361 126.117C99.9931 126.171 100.039 126.236 100.071 126.308C101.905 126.855 103.771 127.284 105.661 127.594C108.085 127.98 110.092 126.185 112.581 126.064C112.581 116.533 112.627 89.4069 108.568 83.6189L96.5581 79.5809C96.5001 80.5709 90.7301 87.2589 90.8721 95.4139C91.0321 104.604 89.8361 113.272 89.6301 116.147C89.5981 116.636 89.0321 123.337 89.0071 123.857Z" fill="#3E2928"/>
<path d="M109.674 72.6608L108.568 83.5938C108.568 83.5938 99.608 83.9538 95.748 81.2908V72.0178" fill="#FF8F6F"/>
<path d="M121.066 65.4649L120.153 66.7119C120.64 65.6972 121.069 64.6558 121.439 63.5929C121.697 62.8669 120.532 62.5769 120.275 63.3039L120.14 63.6769C120.252 63.2909 120.357 62.9029 120.455 62.5129C120.477 62.4357 120.482 62.3549 120.472 62.2755C120.462 62.196 120.436 62.1194 120.395 62.0502C120.355 61.981 120.301 61.9206 120.237 61.8725C120.173 61.8244 120.1 61.7897 120.022 61.7703C119.944 61.7509 119.863 61.7473 119.784 61.7597C119.705 61.7721 119.629 61.8002 119.561 61.8424C119.493 61.8846 119.434 61.94 119.388 62.0053C119.341 62.0707 119.309 62.1446 119.291 62.2229C119.039 63.2324 118.736 64.2286 118.384 65.2079C118.581 64.3386 118.723 63.4579 118.809 62.5709C118.886 61.8059 117.683 61.8379 117.612 62.5709C117.512 63.5809 117.332 64.5809 117.072 65.5609C117.072 65.2156 117.039 64.8711 116.975 64.5319C116.966 64.4466 116.94 64.3641 116.897 64.29C116.853 64.2158 116.795 64.1517 116.725 64.1019C116.693 63.9669 116.654 63.8334 116.609 63.7019C116.564 63.5671 116.472 63.4527 116.351 63.3787C116.229 63.3048 116.085 63.276 115.945 63.2975C115.804 63.319 115.675 63.3894 115.582 63.4962C115.488 63.6031 115.434 63.7396 115.431 63.8819L115.354 68.3839C115.136 68.8509 114.853 69.2839 114.512 69.6709C115.09 70.0709 115.649 70.5009 116.184 70.9569C116.662 71.3599 117.117 71.7899 117.548 72.2429C117.934 71.7629 118.305 71.2739 118.661 70.7769C118.705 70.7392 118.744 70.6959 118.776 70.6479C119.848 69.0626 120.955 67.5015 122.096 65.9659C122.572 65.4389 121.523 64.8539 121.066 65.4649Z" fill="#FFB5A9"/>
<path d="M103.988 62.6929C103.988 62.6929 108.221 63.8309 109.938 66.5519C111.014 68.4344 111.962 70.3872 112.775 72.3969L115.901 67.5419C115.901 67.5419 119.696 68.7059 121.201 70.5709C121.201 70.5709 116.699 80.4109 112.775 81.2529C108.851 82.0949 104.683 75.4779 104.683 75.4779C104.683 75.4779 103.821 78.2429 103.988 75.2909" fill="#FF8F6F"/>
<path d="M106.677 73.2079C105.447 72.2073 104.518 70.8849 103.994 69.3879C103.486 67.6579 104.123 66.1399 104.714 64.5319C105.355 62.9383 105.729 61.25 105.821 59.5349C105.873 57.8509 105.68 56.1649 105.564 54.4869C105.548 54.4151 105.548 54.3406 105.564 54.2689C104.998 52.3709 103.84 50.7639 101.556 50.5709C95.645 50.0689 95.3101 56.6159 95.3561 59.2779C95.4001 61.9409 95.684 63.7409 93.722 64.8539C91.76 65.9659 90.3441 68.8859 92.2161 71.2459C94.0881 73.6059 92.4091 72.7449 91.1611 74.8409C89.9141 76.9379 90.235 79.5549 92.795 80.5009C95.355 81.4459 107.255 79.6709 108.349 78.5709C108.737 78.1278 108.938 77.5512 108.909 76.9629C108.642 75.4831 107.849 74.1496 106.677 73.2079Z" fill="#007F68"/>
<path d="M112.492 19.2129C113.494 20.6546 114.073 22.3476 114.164 24.1009C114.276 24.9036 114.081 25.719 113.617 26.3839C113.42 26.6007 113.156 26.7457 112.867 26.7959C112.578 26.846 112.281 26.7985 112.022 26.6609C111.697 26.531 111.403 26.3333 111.16 26.0809C110.942 25.8764 110.756 25.6404 110.607 25.3809L110.453 25.0789C110.411 25.1579 110.359 25.2309 110.298 25.2969C110.145 25.4169 109.963 25.4939 109.771 25.5219C109.449 25.5819 109.117 25.5419 108.819 25.4069C108.108 25.0992 107.516 24.5685 107.133 23.8949C106.672 23.1635 106.414 22.3222 106.387 21.4579C106.292 20.7579 106.511 20.0519 106.985 19.5279C107.189 19.3313 107.449 19.2024 107.729 19.1587C108.009 19.115 108.295 19.1587 108.549 19.2839C108.807 19.3869 109.044 19.5349 109.249 19.7219C109.425 19.8709 109.581 20.0419 109.713 20.2299L109.829 20.4359V19.8629L111.115 20.3649L111.244 23.9789C111.253 24.2379 111.333 24.4889 111.475 24.7059C111.596 24.9149 111.781 25.0789 112.003 25.1759C112.625 25.4199 112.912 24.8839 112.865 23.5669C112.8 22.2634 112.37 21.0044 111.623 19.9339C110.952 18.8447 109.955 17.9945 108.773 17.5039C108.345 17.2861 107.86 17.2021 107.384 17.2627C106.907 17.3233 106.459 17.5258 106.098 17.8439C105.714 18.2298 105.421 18.6971 105.242 19.2114C105.063 19.7257 105.001 20.2737 105.062 20.8149C105.136 22.1937 105.58 23.527 106.349 24.6739C106.961 25.8066 107.925 26.7094 109.095 27.2459C109.503 27.4159 109.94 27.5009 110.382 27.4959C110.669 27.5159 110.957 27.4629 111.218 27.3419L111.475 27.2009L112.254 28.6479L112.125 28.7379C112.003 28.8059 111.876 28.8669 111.745 28.9179C111.54 29.0069 111.324 29.0679 111.102 29.0979C110.819 29.1359 110.531 29.1359 110.247 29.0979C109.874 29.0533 109.509 28.9602 109.16 28.8209C108.17 28.3951 107.29 27.7487 106.587 26.9309C105.755 26.0107 105.081 24.9588 104.593 23.8179C104.105 22.7287 103.825 21.5573 103.769 20.3649C103.7 19.3624 103.905 18.36 104.361 17.4649C104.74 16.7136 105.395 16.1376 106.188 15.8569C107.019 15.5831 107.923 15.6287 108.722 15.9849C110.283 16.6445 111.601 17.7728 112.492 19.2139V19.2129ZM109.655 23.7859C109.866 23.5159 109.961 23.1739 109.919 22.8339C109.909 22.4146 109.792 22.0049 109.578 21.6439C109.404 21.3288 109.13 21.0802 108.799 20.9369C108.673 20.8718 108.529 20.8468 108.388 20.8652C108.247 20.8836 108.115 20.9446 108.009 21.0399C107.898 21.1661 107.815 21.3146 107.766 21.4756C107.717 21.6365 107.703 21.8061 107.725 21.9729C107.74 22.3969 107.866 22.8089 108.092 23.1689C108.277 23.4949 108.564 23.7529 108.909 23.9019C109.156 24.0289 109.457 23.9819 109.655 23.7859ZM188.441 88.8479C189.445 90.2885 190.024 91.9816 190.113 93.7349C190.226 94.5375 190.031 95.3529 189.567 96.0179C189.369 96.2341 189.105 96.3785 188.817 96.4287C188.528 96.4788 188.23 96.4317 187.971 96.2949C187.647 96.1632 187.353 95.9657 187.109 95.7149C186.892 95.5093 186.706 95.2735 186.556 95.0149L186.402 94.7129C186.359 94.7909 186.307 94.864 186.247 94.9309C186.095 95.0509 185.913 95.1299 185.72 95.1559C185.401 95.2199 185.07 95.1819 184.774 95.0469C184.063 94.7375 183.471 94.2046 183.089 93.5289C182.624 92.7968 182.364 91.953 182.336 91.0859C182.237 90.3859 182.456 89.6779 182.935 89.1559C183.138 88.9601 183.396 88.8316 183.675 88.7879C183.953 88.7443 184.238 88.7875 184.491 88.9119C184.749 89.0139 184.987 89.1619 185.192 89.3489C185.368 89.5009 185.523 89.6739 185.656 89.8639L185.778 90.0689V89.4969L187.064 89.9919L187.193 93.6059C187.204 93.8649 187.284 94.1159 187.424 94.3329C187.545 94.5429 187.73 94.7069 187.952 94.8029C188.595 95.0469 188.859 94.5129 188.82 93.1949C188.755 91.8894 188.325 90.6283 187.579 89.5549C186.908 88.4696 185.914 87.6219 184.736 87.1309C184.308 86.9129 183.824 86.8282 183.347 86.8877C182.87 86.9473 182.422 87.1483 182.06 87.4649C181.678 87.8552 181.389 88.3268 181.214 88.8445C181.039 89.3622 180.983 89.9126 181.05 90.4549C181.122 91.8338 181.567 93.1674 182.336 94.3139C182.972 95.4199 183.947 96.2924 185.116 96.8029C185.523 96.9729 185.96 97.0599 186.402 97.0599C186.689 97.0769 186.976 97.0239 187.238 96.9049L187.495 96.7639L188.274 98.2109L188.144 98.3009C188.023 98.3699 187.896 98.4299 187.765 98.4809C187.559 98.566 187.343 98.6265 187.122 98.6609C186.836 98.6988 186.546 98.6988 186.26 98.6609C185.889 98.6139 185.526 98.5188 185.18 98.3779C184.19 97.9538 183.31 97.3095 182.607 96.4939C181.774 95.5714 181.1 94.5171 180.612 93.3739C180.124 92.285 179.845 91.114 179.789 89.9219C179.72 88.9213 179.924 87.9207 180.381 87.0279C180.761 86.2756 181.415 85.6976 182.208 85.4129C183.042 85.1424 183.946 85.1886 184.748 85.5429C186.291 86.2366 187.581 87.3912 188.441 88.8479ZM185.604 93.4199C185.817 93.1509 185.914 92.8089 185.874 92.4679C185.863 92.0479 185.744 91.638 185.527 91.2779C185.356 90.9627 185.084 90.7138 184.755 90.5709C184.629 90.5048 184.486 90.4787 184.345 90.496C184.203 90.5134 184.071 90.5733 183.964 90.6679C183.851 90.793 183.767 90.9411 183.717 91.102C183.667 91.2629 183.652 91.4328 183.674 91.5999C183.689 92.0219 183.816 92.4329 184.041 92.7899C184.226 93.1179 184.513 93.3779 184.858 93.5299C184.978 93.5924 185.115 93.6155 185.249 93.5957C185.383 93.576 185.507 93.5144 185.604 93.4199Z" fill="#F47B56"/>
<path style="mix-blend-mode:multiply" opacity="0.25" d="M60.2532 116.269L38.4792 103.883L16.7112 116.295C16.7112 116.295 28.8242 123.857 39.6622 130.211C46.5452 125.349 52.6622 119.787 60.2532 116.269Z" fill="url(#paint4_linear)"/>
<g filter="url(#filter0_d)">
<path d="M20.9292 81.4708V108.406L41.9132 120.423L65.6072 106.41V79.4758" fill="black"/>
</g>
<path d="M20.9292 81.4708V108.406L41.9132 120.423L65.6072 106.41V79.4758" fill="#FF9271"/>
<path d="M41.9132 93.4888V120.424L65.6072 106.411V79.4758L41.9132 93.4888Z" fill="#DF5C34"/>
<path d="M20.9292 81.4709L45.2762 67.5929L65.6062 79.4759L41.9132 93.4889L20.9292 81.4709Z" fill="#F47B56"/>
<path d="M42.4702 73.7749C44.939 73.6083 47.404 74.1513 49.5742 75.3399C50.8172 76.0709 51.4962 76.8339 51.5922 77.6299C51.6882 78.4249 51.2782 79.1169 50.3112 79.6999C49.8524 79.9833 49.3469 80.1831 48.8182 80.2899C48.3842 80.3929 47.9382 80.4389 47.4922 80.4249L47.0052 80.3869C47.0512 80.4959 47.0812 80.6099 47.0952 80.7269C47.0801 81.0036 46.9917 81.2714 46.8392 81.5029C46.5852 81.9329 46.2232 82.2889 45.7892 82.5349C44.7769 83.1364 43.6166 83.4429 42.4392 83.4199C41.2209 83.4529 40.017 83.1491 38.9602 82.5419C37.9612 81.9519 37.4492 81.2589 37.4102 80.4639C37.4141 80.0429 37.5362 79.6314 37.7627 79.2766C37.9893 78.9217 38.311 78.6376 38.6912 78.4569C39.0563 78.2291 39.4538 78.0581 39.8702 77.9499C40.202 77.8541 40.5435 77.796 40.8882 77.7769H41.2412L40.6002 77.3919L42.4002 76.2699L46.5702 78.7259C46.8891 78.8976 47.2456 78.9875 47.6077 78.9875C47.9699 78.9875 48.3264 78.8976 48.6452 78.7259C49.5292 78.1749 49.2132 77.4499 47.6972 76.5519C46.0861 75.6645 44.2546 75.2571 42.4192 75.3779C40.474 75.4017 38.5711 75.9489 36.9102 76.9619C35.3992 77.9069 34.6502 79.0339 34.6622 80.3419C34.6622 81.6249 35.4622 82.7659 37.0192 83.6829C38.7192 84.6329 40.6482 85.0929 42.5922 85.0109C44.5285 85.0427 46.4356 84.5366 48.1012 83.5489C48.6774 83.207 49.1942 82.7737 49.6312 82.2659C49.9242 81.9559 50.1432 81.5829 50.2722 81.1759L50.3622 80.7719L52.7382 80.9059C52.7422 80.9789 52.7422 81.0519 52.7382 81.1249C52.6952 81.3209 52.6372 81.5139 52.5652 81.7019C52.4622 82.0019 52.3252 82.2919 52.1552 82.5609C51.9112 82.9249 51.6282 83.2609 51.3102 83.5609C50.8902 83.9659 50.4302 84.3229 49.9332 84.6259C48.5032 85.4843 46.9192 86.055 45.2702 86.3059C43.4732 86.6197 41.6382 86.6521 39.8312 86.4019C38.1886 86.2085 36.6011 85.6897 35.1612 84.8759C33.9992 84.2602 33.0687 83.2834 32.5102 82.0929C32.2819 81.5734 32.1641 81.0122 32.1641 80.4449C32.1641 79.8775 32.2819 79.3163 32.5102 78.7969C33.0636 77.5842 33.9849 76.5765 35.1432 75.9169C37.3501 74.5605 39.8803 73.8208 42.4702 73.7749ZM44.8022 80.4059C44.7603 80.1867 44.6655 79.9811 44.5261 79.8068C44.3866 79.6325 44.2068 79.4949 44.0022 79.4059C43.4973 79.1086 42.9222 78.9515 42.3362 78.9509C41.792 78.9302 41.2535 79.0681 40.7862 79.3479C40.4022 79.5349 40.1552 79.9209 40.1462 80.3479C40.2042 80.7929 40.4912 81.1749 40.9012 81.3549C41.4173 81.6498 42.004 81.7984 42.5982 81.7849C43.1695 81.7993 43.7333 81.6527 44.2252 81.3619C44.5982 81.1919 44.8352 80.8159 44.8282 80.4059" fill="#3E2928"/>
</g>
<defs>
<filter id="filter0_d" x="-29.0708" y="54.4758" width="144.678" height="140.947" filterUnits="userSpaceOnUse" color-interpolation-filters="sRGB">
<feFlood flood-opacity="0" result="BackgroundImageFix"/>
<feColorMatrix in="SourceAlpha" type="matrix" values="0 0 0 0 0 0 0 0 0 0 0 0 0 0 0 0 0 0 127 0"/>
<feOffset dy="25"/>
<feGaussianBlur stdDeviation="25"/>
<feColorMatrix type="matrix" values="0 0 0 0 0.209139 0 0 0 0 0.0691446 0 0 0 0 0.478091 0 0 0 0.497159 0"/>
<feBlend mode="normal" in2="BackgroundImageFix" result="effect1_dropShadow"/>
<feBlend mode="normal" in="SourceGraphic" in2="effect1_dropShadow" result="shape"/>
</filter>
<linearGradient id="paint0_linear" x1="134.632" y1="101.866" x2="127.637" y2="111.343" gradientUnits="userSpaceOnUse">
<stop stop-color="#78B46A"/>
<stop offset="0.03" stop-color="#7F3500"/>
<stop offset="1" stop-color="white"/>
</linearGradient>
<linearGradient id="paint1_linear" x1="108.742" y1="143.213" x2="94.061" y2="159.307" gradientUnits="userSpaceOnUse">
<stop stop-color="#78B46A"/>
<stop offset="0.03" stop-color="#7F3500"/>
<stop offset="1" stop-color="white"/>
</linearGradient>
<linearGradient id="paint2_linear" x1="76.837" y1="75.6808" x2="65.8338" y2="87.7446" gradientUnits="userSpaceOnUse">
<stop stop-color="#78B46A"/>
<stop offset="0.03" stop-color="#7F3500"/>
<stop offset="1" stop-color="white"/>
</linearGradient>
<linearGradient id="paint3_linear" x1="179.577" y1="75.8167" x2="172.978" y2="71.0059" gradientUnits="userSpaceOnUse">
<stop stop-color="white" stop-opacity="0"/>
<stop offset="0.99" stop-color="#DC841E"/>
</linearGradient>
<linearGradient id="paint4_linear" x1="52.4953" y1="111.15" x2="37.601" y2="127.479" gradientUnits="userSpaceOnUse">
<stop stop-color="#78B46A"/>
<stop offset="0.03" stop-color="#7F3500"/>
<stop offset="1" stop-color="white"/>
</linearGradient>
<clipPath id="clip0">
<rect width="236.85" height="179.57" fill="white"/>
</clipPath>
</defs>
</svg>
